{"title":"Dedh Ishqiya (2014) Hindi Movie CamRip x264 [465 MB] -AshishRock","uid":9463214,"size":488454293,"categoryP":"video","categoryS":"movies","magnet":"?xt=urn:btih:f2ece543523bbc00c105e4848fffb0782e8fb742&amp;dn=Dedh+Ishqiya+%282014%29+Hindi+Movie+CamRip+x264+%5B465+MB%5D+-AshishRock&amp;tr=udp%3A%2F%2Ftracker.openbittorrent.com%3A80&amp;tr=udp%3A%2F%2Fopen.demonii.com%3A1337&amp;tr=udp%3A%2F%2Ftracker.coppersurfer.tk%3A6969&amp;tr=udp%3A%2F%2Fexodus.desync.com%3A6969","seeders":0,"leechers":0,"uploader":"ashish.p","files":3,"time":1389389814,"description":"General\n\nComplete name : Dedh Ishqiya (2014) Hindi Movie CamRip x264 [465 MB] -AshishRocks- { DAKU RG }\nFormat : MPEG-PS\nFile size : 466 MiB\nDuration :\t2h 17mn\nOverall bit rate mode : Variable\nOverall bit rate : 473 Kbps\n\nVideo\n\nID : 224 (0xE0)\nFormat : MPEG Video\nFormat version : Version 2\nFormat profile : Main@Main\nFormat settings, BVOP :\tYes\nFormat settings, Matrix :\tDefault\nFormat settings, GOP : M=3, N=13\nDuration :\t 2h 17mn\nBit rate mode :\tVariable\nBit rate : 335 Kbps\nMaximum bit rate : 9 072 Kbps\nWidth : 352 pixels\nHeight : 288 pixels\nDisplay aspect ratio : 4:3\nFrame rate : 25.000 fps\nStandard : PAL\nColor space : YUV\nChroma subsampling : 4:2:0\nBit depth : 8 bits\nScan type : Progressive\nCompression mode : Lossy\nBits/(Pixel*Frame) :\t0.132\nStream size : 330 MiB (71%)\n\nAudio\n\nID :\t192 (0xC0)\nFormat : MPEG Audio\nFormat version : Version 1\nFormat profile : Layer 2\nDuration :\t 2h 17mn\nBit rate mode :\tConstant\nBit rate :\t128 Kbps\nChannel(s) : 2 channels\nSampling rate : 48.0 KHz\nCompression mode : Lossy\nStream size : 126 MiB (27%)","torrent":{"xt":"urn:btih:f2ece543523bbc00c105e4848fffb0782e8fb742","amp;dn":"Dedh+Ishqiya+%282014%29+Hindi+Movie+CamRip+x264+%5B465+MB%5D+-AshishRock","amp;tr":["udp%3A%2F%2Ftracker.openbittorrent.com%3A80","udp%3A%2F%2Fopen.demonii.com%3A1337","udp%3A%2F%2Ftracker.coppersurfer.tk%3A6969","udp%3A%2F%2Fexodus.desync.com%3A6969"],"infoHash":"f2ece543523bbc00c105e4848fffb0782e8fb742","infoHashBuffer":{"type":"Buffer","data":[242,236,229,67,82,59,188,0,193,5,228,132,143,255,176,120,46,143,183,66]},"announce":[],"urlList":[]}}